<mxfile host="app.diagrams.net" agent="Mozilla/5.0 (Windows NT 10.0; Win64; x64) AppleWebKit/537.36 (KHTML, like Gecko) Chrome/135.0.0.0 Safari/537.36" version="26.2.8">
  <diagram id="C5RBs43oDa-KdzZeNtuy" name="Page-1">
    <mxGraphModel dx="985" dy="541" grid="1" gridSize="10" guides="1" tooltips="1" connect="1" arrows="1" fold="1" page="1" pageScale="1" pageWidth="827" pageHeight="1169" math="0" shadow="0">
      <root>
        <mxCell id="WIyWlLk6GJQsqaUBKTNV-0" />
        <mxCell id="WIyWlLk6GJQsqaUBKTNV-1" parent="WIyWlLk6GJQsqaUBKTNV-0" />
        <mxCell id="WIyWlLk6GJQsqaUBKTNV-2" value="" style="rounded=0;html=1;jettySize=auto;orthogonalLoop=1;fontSize=11;endArrow=classic;endFill=1;endSize=8;strokeWidth=1;shadow=0;labelBackgroundColor=none;edgeStyle=orthogonalEdgeStyle;fontFamily=SimHei;" parent="WIyWlLk6GJQsqaUBKTNV-1" source="WIyWlLk6GJQsqaUBKTNV-3" target="WIyWlLk6GJQsqaUBKTNV-6" edge="1">
          <mxGeometry relative="1" as="geometry" />
        </mxCell>
        <mxCell id="WIyWlLk6GJQsqaUBKTNV-3" value="原始POI数据" style="rounded=1;whiteSpace=wrap;html=1;fontSize=11;glass=0;strokeWidth=1;shadow=0;fillColor=#dae8fc;strokeColor=#6c8ebf;fontFamily=SimHei;" parent="WIyWlLk6GJQsqaUBKTNV-1" vertex="1">
          <mxGeometry x="160" y="100" width="120" height="40" as="geometry" />
        </mxCell>
        <mxCell id="WIyWlLk6GJQsqaUBKTNV-4" value="是" style="rounded=0;html=1;jettySize=auto;orthogonalLoop=1;fontSize=11;endArrow=classic;endFill=1;endSize=8;strokeWidth=1;shadow=0;labelBackgroundColor=none;edgeStyle=orthogonalEdgeStyle;fontFamily=SimHei;" parent="WIyWlLk6GJQsqaUBKTNV-1" source="WIyWlLk6GJQsqaUBKTNV-6" target="WIyWlLk6GJQsqaUBKTNV-10" edge="1">
          <mxGeometry y="20" relative="1" as="geometry">
            <mxPoint as="offset" />
          </mxGeometry>
        </mxCell>
        <mxCell id="WIyWlLk6GJQsqaUBKTNV-6" value="type属性&lt;div&gt;是否为node?&lt;/div&gt;" style="rhombus;whiteSpace=wrap;html=1;shadow=0;fontFamily=SimHei;fontSize=11;align=center;strokeWidth=1;spacing=6;spacingTop=-4;fillColor=#fff2cc;strokeColor=#d6b656;" parent="WIyWlLk6GJQsqaUBKTNV-1" vertex="1">
          <mxGeometry x="170" y="170" width="100" height="80" as="geometry" />
        </mxCell>
        <mxCell id="WIyWlLk6GJQsqaUBKTNV-10" value="是否存在&lt;div&gt;tags属性？&lt;/div&gt;" style="rhombus;whiteSpace=wrap;html=1;shadow=0;fontFamily=SimHei;fontSize=11;align=center;strokeWidth=1;spacing=6;spacingTop=-4;fillColor=#fff2cc;strokeColor=#d6b656;" parent="WIyWlLk6GJQsqaUBKTNV-1" vertex="1">
          <mxGeometry x="170" y="290" width="100" height="80" as="geometry" />
        </mxCell>
        <mxCell id="WIyWlLk6GJQsqaUBKTNV-12" value="丢弃数据" style="rounded=1;whiteSpace=wrap;html=1;fontSize=11;glass=0;strokeWidth=1;shadow=0;fillColor=#fad9d5;strokeColor=#ae4132;fontFamily=SimHei;" parent="WIyWlLk6GJQsqaUBKTNV-1" vertex="1">
          <mxGeometry x="320" y="550" width="120" height="40" as="geometry" />
        </mxCell>
        <mxCell id="H5-rNuZZpO5DvACjp66R-1" value="&lt;div&gt;tags属性是否具有&lt;/div&gt;&lt;div&gt;amenity或shop或&lt;/div&gt;&lt;div&gt;public_transport属性？&lt;/div&gt;" style="rhombus;whiteSpace=wrap;html=1;shadow=0;fontFamily=SimHei;fontSize=11;align=center;strokeWidth=1;spacing=6;spacingTop=-4;fillColor=#fff2cc;strokeColor=#d6b656;" vertex="1" parent="WIyWlLk6GJQsqaUBKTNV-1">
          <mxGeometry x="120" y="410" width="200" height="100" as="geometry" />
        </mxCell>
        <mxCell id="H5-rNuZZpO5DvACjp66R-3" value="" style="endArrow=classic;html=1;rounded=0;exitX=0.5;exitY=1;exitDx=0;exitDy=0;entryX=0.5;entryY=0;entryDx=0;entryDy=0;endSize=8;fontFamily=SimHei;fontSize=11;" edge="1" parent="WIyWlLk6GJQsqaUBKTNV-1" source="WIyWlLk6GJQsqaUBKTNV-10" target="H5-rNuZZpO5DvACjp66R-1">
          <mxGeometry width="50" height="50" relative="1" as="geometry">
            <mxPoint x="260" y="390" as="sourcePoint" />
            <mxPoint x="310" y="340" as="targetPoint" />
          </mxGeometry>
        </mxCell>
        <mxCell id="H5-rNuZZpO5DvACjp66R-4" value="是" style="edgeLabel;html=1;align=center;verticalAlign=middle;resizable=0;points=[];fontFamily=SimHei;fontSize=11;" vertex="1" connectable="0" parent="H5-rNuZZpO5DvACjp66R-3">
          <mxGeometry x="0.0667" y="3" relative="1" as="geometry">
            <mxPoint x="17" y="-1" as="offset" />
          </mxGeometry>
        </mxCell>
        <mxCell id="H5-rNuZZpO5DvACjp66R-5" value="保留数据" style="rounded=1;whiteSpace=wrap;html=1;fontSize=11;glass=0;strokeWidth=1;shadow=0;fillColor=#b0e3e6;strokeColor=#0e8088;fontFamily=SimHei;" vertex="1" parent="WIyWlLk6GJQsqaUBKTNV-1">
          <mxGeometry x="160" y="550" width="120" height="40" as="geometry" />
        </mxCell>
        <mxCell id="H5-rNuZZpO5DvACjp66R-6" value="" style="endArrow=classic;html=1;rounded=0;exitX=0.5;exitY=1;exitDx=0;exitDy=0;entryX=0.5;entryY=0;entryDx=0;entryDy=0;endSize=8;fontFamily=SimHei;fontSize=11;" edge="1" parent="WIyWlLk6GJQsqaUBKTNV-1" target="H5-rNuZZpO5DvACjp66R-5">
          <mxGeometry width="50" height="50" relative="1" as="geometry">
            <mxPoint x="219.66" y="510" as="sourcePoint" />
            <mxPoint x="219.66" y="550" as="targetPoint" />
          </mxGeometry>
        </mxCell>
        <mxCell id="H5-rNuZZpO5DvACjp66R-7" value="是" style="edgeLabel;html=1;align=center;verticalAlign=middle;resizable=0;points=[];fontFamily=SimHei;fontSize=11;" vertex="1" connectable="0" parent="H5-rNuZZpO5DvACjp66R-6">
          <mxGeometry x="0.0667" y="3" relative="1" as="geometry">
            <mxPoint x="17" y="-1" as="offset" />
          </mxGeometry>
        </mxCell>
        <mxCell id="H5-rNuZZpO5DvACjp66R-8" value="" style="endArrow=classic;html=1;rounded=0;exitX=1;exitY=0.5;exitDx=0;exitDy=0;entryX=0.5;entryY=0;entryDx=0;entryDy=0;endSize=8;fontFamily=SimHei;fontSize=11;" edge="1" parent="WIyWlLk6GJQsqaUBKTNV-1" source="WIyWlLk6GJQsqaUBKTNV-6" target="WIyWlLk6GJQsqaUBKTNV-12">
          <mxGeometry width="50" height="50" relative="1" as="geometry">
            <mxPoint x="330" y="300" as="sourcePoint" />
            <mxPoint x="380" y="250" as="targetPoint" />
            <Array as="points">
              <mxPoint x="380" y="210" />
            </Array>
          </mxGeometry>
        </mxCell>
        <mxCell id="H5-rNuZZpO5DvACjp66R-10" value="否" style="edgeLabel;html=1;align=center;verticalAlign=middle;resizable=0;points=[];fontFamily=SimHei;fontSize=11;" vertex="1" connectable="0" parent="H5-rNuZZpO5DvACjp66R-8">
          <mxGeometry x="-0.7714" y="1" relative="1" as="geometry">
            <mxPoint x="-1" y="-9" as="offset" />
          </mxGeometry>
        </mxCell>
        <mxCell id="H5-rNuZZpO5DvACjp66R-9" value="" style="endArrow=classic;html=1;rounded=0;exitX=1;exitY=0.5;exitDx=0;exitDy=0;entryX=0.5;entryY=0;entryDx=0;entryDy=0;endSize=8;fontFamily=SimHei;fontSize=11;" edge="1" parent="WIyWlLk6GJQsqaUBKTNV-1" source="WIyWlLk6GJQsqaUBKTNV-10">
          <mxGeometry width="50" height="50" relative="1" as="geometry">
            <mxPoint x="230" y="300.0000000000001" as="sourcePoint" />
            <mxPoint x="380" y="550" as="targetPoint" />
            <Array as="points">
              <mxPoint x="380" y="330" />
            </Array>
          </mxGeometry>
        </mxCell>
        <mxCell id="H5-rNuZZpO5DvACjp66R-11" value="否" style="edgeLabel;html=1;align=center;verticalAlign=middle;resizable=0;points=[];fontFamily=SimHei;fontSize=11;" vertex="1" connectable="0" parent="H5-rNuZZpO5DvACjp66R-9">
          <mxGeometry x="-0.6999" relative="1" as="geometry">
            <mxPoint y="-10" as="offset" />
          </mxGeometry>
        </mxCell>
        <mxCell id="H5-rNuZZpO5DvACjp66R-12" value="" style="endArrow=classic;html=1;rounded=0;entryX=0.5;entryY=0;entryDx=0;entryDy=0;exitX=1;exitY=0.5;exitDx=0;exitDy=0;fontFamily=SimHei;fontSize=11;" edge="1" parent="WIyWlLk6GJQsqaUBKTNV-1" source="H5-rNuZZpO5DvACjp66R-1" target="WIyWlLk6GJQsqaUBKTNV-12">
          <mxGeometry width="50" height="50" relative="1" as="geometry">
            <mxPoint x="120" y="410" as="sourcePoint" />
            <mxPoint x="170" y="360" as="targetPoint" />
            <Array as="points">
              <mxPoint x="380" y="460" />
            </Array>
          </mxGeometry>
        </mxCell>
        <mxCell id="H5-rNuZZpO5DvACjp66R-13" value="否" style="edgeLabel;html=1;align=center;verticalAlign=middle;resizable=0;points=[];fontFamily=SimHei;fontSize=11;" vertex="1" connectable="0" parent="H5-rNuZZpO5DvACjp66R-12">
          <mxGeometry x="-0.7333" y="1" relative="1" as="geometry">
            <mxPoint x="10" y="-9" as="offset" />
          </mxGeometry>
        </mxCell>
      </root>
    </mxGraphModel>
  </diagram>
</mxfile>
